<svg height="512pt" viewBox="0 0 512 512" width="512pt" xmlns="http://www.w3.org/2000/svg" xmlns:xlink="http://www.w3.org/1999/xlink"><linearGradient id="a" gradientTransform="matrix(1 0 0 -1 0 -20854)" gradientUnits="userSpaceOnUse" x1="0" x2="512" y1="-21110" y2="-21110"><stop offset="0" stop-color="#00f38d"/><stop offset="1" stop-color="#009eff"/></linearGradient><path d="m512 256c0 141.386719-114.613281 256-256 256s-256-114.613281-256-256 114.613281-256 256-256 256 114.613281 256 256zm0 0" fill="url(#a)"/><g fill="#fff"><path d="m353.132812 171.449219c0-53.457031-43.492187-96.949219-96.953124-96.949219-53.457032 0-96.949219 43.492188-96.949219 96.949219 0 31.636719 15.230469 59.777343 38.746093 77.488281-62.960937 23.632812-107.894531 84.445312-107.894531 155.5625h30c0-75.046875 61.054688-136.097656 136.097657-136.097656 53.460937 0 96.953124-43.492188 96.953124-96.953125zm-96.953124 66.953125c-36.917969 0-66.949219-30.035156-66.949219-66.953125s30.03125-66.949219 66.949219-66.949219c36.917968 0 66.953124 30.03125 66.953124 66.949219s-30.035156 66.953125-66.953124 66.953125zm0 0"/><path d="m422.917969 322.914062h-53.78125v-53.78125h-30v53.78125h-53.78125v30h53.78125v53.78125h30v-53.78125h53.78125zm0 0"/></g></svg>